# xmcd CD database file
#
# Track frame offsets:
#	183
#	11933
#	31328
#	57945
#	73455
#	104065
#	119610
#	134710
#	145180
#	168520
#	183670
#	197325
#	212260
#	227053
#
# Disc length: 3763 seconds
#
# Revision: 0
# Processed by: cddbd v1.4PL0 Copyright (c) Steve Scherf et al.
# Submitted via: CDex 1.50Beta7
#
DISCID=da0eb10e
DTITLE=Benny Goodman - The Very Best of Benny Goodman
DYEAR=1900
DGENRE=Jazz
TTITLE0=Let's Dance (Theme Song)
TTITLE1=Avalon
TTITLE2=Stompin' At The Savoy
TTITLE3=Body And Soul
TTITLE4=One O'Clock Jump
TTITLE5=Clarinet A La King
TTITLE6=Six Flats Unfurnished
TTITLE7=Let's Do It, Lets Fall In Love
TTITLE8=I Got Rhythum
TTITLE9=A Smo-o-oth One
TTITLE10=A String Of Pearls
TTITLE11=After You've Gone
TTITLE12=Why Don't You Do Right
TTITLE13=Sing, Sing, Sing (With A Swing)
EXTD=
EXTT0=
EXTT1=
EXTT2=
EXTT3=
EXTT4=
EXTT5=
EXTT6=
EXTT7=
EXTT8=
EXTT9=
EXTT10=
EXTT11=
EXTT12=
EXTT13=
PLAYORDER=
